PathFileType	4	(X/Y/Z)	Patient4_TMGait_0pt6_01_right_08.trc.trc
DataRate	CameraRate	NumFrames	NumMarkers	Units	OrigDataRate	OrigDataStartFrame	OrigNumFrames
82.352941176471	82.352941176471	5	33	mm	82.352941176471	89	       141
Frame#	Time	Sacral			L.Shoulder			Chest			R.Shoulder			Neck			R.ASIS			L.ASIS			R.Thigh.Superior			R.Thigh.Lateral			R.Thigh.Inferior			R.Patella			L.Thigh.Superior			L.Thigh.Lateral			L.Thigh.Inferior			L.Patella			L.Shank.Superior			L.Shank.Lateral			L.Shank.Inferior			R.Shank.Superior			R.Shank.Lateral			R.Shank.Inferior			R.Heel			R.Midfoot.Superior			R.Midfoot.Lateral			R.Toe			L.Heel			L.Midfoot.Lateral			L.Midfoot.Superior			L.Toe			L.Elbow			L.Wrist			R.Elbow			R.Wrist			
		X1	Y1	Z1	X2	Y2	Z2	X3	Y3	Z3	X4	Y4	Z4	X5	Y5	Z5	X6	Y6	Z6	X7	Y7	Z7	X8	Y8	Z8	X9	Y9	Z9	X10	Y10	Z10	X11	Y11	Z11	X12	Y12	Z12	X13	Y13	Z13	X14	Y14	Z14	X15	Y15	Z15	X16	Y16	Z16	X17	Y17	Z17	X18	Y18	Z18	X19	Y19	Z19	X20	Y20	Z20	X21	Y21	Z21	X22	Y22	Z22	X23	Y23	Z23	X24	Y24	Z24	X25	Y25	Z25	X26	Y26	Z26	X27	Y27	Z27	X28	Y28	Z28	X29	Y29	Z29	X30	Y30	Z30	X31	Y31	Z31	X32	Y32	Z32	X33	Y33	Z33	

89	10.188571428571	693.556286698899	997.368064139342	474.218000268645	824.892746854530	1434.557169870683	291.263790917475	945.773281228146	1369.316479072074	441.395371459622	873.589913863015	1436.906217802702	621.867010265481	821.693793495389	1491.706867625164	445.992931249749	926.163240620428	937.835162245795	577.514462305052	900.179000176114	962.567448615279	304.958122990113	965.977298523753	732.410257167838	554.491812774719	887.566225726698	622.526302934694	618.426692206678	967.091213026534	564.314974578671	542.541730273184	957.259290311884	454.031294836806	561.546802992099	970.144344372345	759.628768746825	336.020022848759	894.061436617442	634.914147044525	279.714167461003	987.082667383666	566.226877454919	342.355152651980	994.839751988828	495.628597344420	352.379274463312	969.398685030355	420.517129104800	346.077301633963	883.260841008412	303.110056819807	297.748662200338	937.881784462705	194.586800058426	369.208325915843	878.817570260145	387.425279275238	565.833312909095	757.984771419197	346.969042093603	625.416844850971	742.875573736873	239.467438014302	572.438472375963	540.278200786333	171.147352444917	539.700413116700	709.534942967361	123.860247539878	584.346826067975	600.637761594983	117.300358385560	615.300157449833	780.377604218755	31.351794983188	615.618743259682	813.765409002682	37.539397784552	414.222333023311	885.049651405158	35.432984661366	330.773471366728	968.449048243378	96.775060433807	355.643942006015	1096.218635119931	46.469248282978	322.584552880826	764.087527064133	1081.408401730524	186.330236301961	825.668257338941	828.046911322712	184.614025597029	919.582238444421	1092.043070634798	738.867327010091	1160.157686304446	1032.387407530772	685.479013656607	
90	10.200714285714	692.445323729006	997.690418349071	472.036949647829	825.349635329401	1435.174518224839	289.382873782864	945.243141378952	1369.803737110743	440.282235752285	871.909537331106	1437.116357751661	620.418369811372	821.106162825142	1492.229687478432	444.235763280607	924.895136749495	938.376842430000	575.933076186779	899.591449962976	963.050565120929	303.404589690888	970.016490960230	735.326865158614	552.588619453289	895.181714831001	623.716338635099	617.004164404533	976.195786667285	567.192076201860	540.878534365537	968.092071131368	455.814382513849	560.173348691690	967.998803110481	758.848458658185	334.445152428993	890.716751920765	634.962787253485	278.471087338201	982.653440697142	565.445536124837	341.551098730321	989.580577084431	494.919492888853	351.757250400771	963.891329684561	419.989539848858	345.451664203949	877.362366762424	302.889736981065	297.220160865673	931.232853775393	194.265004740955	369.063618853696	888.150749187892	389.686730859990	564.527356383783	766.030617049350	352.756198479500	624.023336009496	748.190397831086	245.518888068207	571.616939452473	544.281746055839	185.604710944256	538.487080389358	710.862639818826	129.238900442202	583.671912937976	601.487700363239	128.518097973507	614.343672318236	776.325770972890	31.083855820750	615.519574259843	806.418198503172	37.517514858291	414.158517437343	877.706571798651	35.392412787843	330.724191378597	961.192844219019	96.638686485194	355.664009372071	1088.945823102361	46.137923575472	322.560344031600	769.700881854748	1081.401234132928	182.521084781719	842.750776665985	830.831612479726	181.502846341526	909.570272665522	1090.610241048110	736.391427555101	1146.596919732523	1014.622501412556	684.905692021672	
91	10.212857142857	691.186753482770	997.994960372534	469.991400194251	825.734565397492	1435.721320762662	287.641599971383	944.635980324016	1370.212025682901	439.294986957564	870.185025438833	1437.257586850108	619.101380887433	820.525454919052	1492.722428392481	442.607520398032	923.489064528704	938.947938914997	574.534560431747	898.877769155011	963.500189530490	301.980708058449	973.778680442887	738.511952218369	550.602941814179	902.651870967154	625.237682971104	615.540766679071	985.021453293041	570.524673858197	539.072555916714	978.907044503076	458.138126639056	558.508031210030	965.785087669047	758.130317165805	333.123322973172	887.359092233177	635.046860817992	277.357788303416	978.195165428422	564.705450754508	340.903125096994	984.292072297922	494.237701556774	351.291224921514	958.366101545737	419.498039534703	344.936211337847	871.453316431000	302.712857685865	296.743245733407	924.584740488700	193.973135457798	368.956035424143	897.667882142585	392.325117368260	562.993888381956	774.499413133622	358.522079493513	622.464835487167	754.181428074933	251.611372858675	570.568640969241	549.390495036614	199.247447340410	537.157006914746	713.319348830040	134.894049195108	582.792639290713	603.690072732855	139.374205656818	613.229397703686	773.823501731841	31.311792459447	615.137167877917	799.081903559179	37.502172335708	414.088680653205	870.378156176749	35.363172734605	330.672308350592	953.939726527605	96.534089442889	355.676347360800	1081.674404093422	45.864541434151	322.532785484398	775.582416453142	1081.452797456453	178.669374449001	860.199964132076	834.287109423782	178.547877107128	899.587011201601	1089.257223744850	733.847214475939	1131.743356510618	996.526338618721	684.473761277545	
92	10.225000000000	689.822899895496	998.313038774364	468.071988984582	826.024507501464	1436.229242048371	286.048328060877	943.944566804696	1370.584691096835	438.426536969880	868.419183724828	1437.369648514826	617.911142628585	819.943207649416	1493.212129238115	441.109484211016	921.971353140805	939.587084840231	573.319581480207	898.082431692940	963.943599797141	300.690222985011	977.188386926980	741.952086432694	548.558429599759	909.852699464181	627.107603379627	614.048066615194	993.439281342802	574.302037803383	537.150687733601	989.574585873366	461.005794761282	556.612594976071	963.530925816167	757.464121727987	331.993001050669	883.940677601313	635.154389631078	276.381671416313	973.689257404775	563.992310902715	340.375228116285	978.958289078433	493.583399433093	350.971487928694	952.807793602597	419.045060368874	344.528848499737	865.515104985449	302.580060606366	296.327962605600	917.927371129476	193.713043094894	368.886956198152	907.272397821967	395.318727996124	561.287077429575	783.289639024203	364.136516076992	620.775387416580	760.858562726185	257.559226138871	569.328671718617	555.540131901218	211.554736144655	535.777237214970	717.077214348340	140.591172064417	581.723511939423	607.357897555423	149.397453931640	611.984614636748	773.273998726741	32.110480108222	614.386862817826	791.751229613364	37.491266180415	414.017457205674	863.059376003865	35.343897968406	330.619682585931	946.683959567890	96.458991857344	355.681715630417	1074.398607450135	45.648798064585	322.502369345848	781.741899453384	1081.604374201461	174.815896891829	877.902236384875	838.461725364106	175.781165813828	889.720811524264	1088.033591218617	731.261970523261	1115.552408132619	978.299180924424	684.188246110988	
93	10.237142857143	688.397377309607	998.671879422568	466.267493819749	826.215613647036	1436.732699960168	284.605046457746	943.171411337521	1370.962001643787	437.670927657281	866.614032274513	1437.489152333721	616.839676404762	819.351419250357	1493.723618668883	439.738133823765	920.366265041117	940.324405766857	572.286283870928	897.250234352971	964.403371364196	299.536900518089	980.200193580104	745.624399910742	546.492723604266	916.691431395588	629.324333365603	612.547797377637	1001.355061079153	578.492333372685	535.151736455360	999.978225421517	464.402318667986	554.559452791175	961.246193108551	756.832783937347	331.009253514805	880.424142041850	635.278703615693	275.540477474559	969.107972513782	563.294124104799	339.943476407398	973.548611107331	492.954621468703	350.784707780775	947.189943798709	418.632683409486	344.222080862437	859.523909070456	302.488596367119	295.977543223240	911.246237946397	193.485881570709	368.854390958848	916.884760735172	398.626961203433	559.469733641423	792.316607653441	369.453223966774	619.001154603988	768.242953157089	263.160664703021	567.941728483043	562.671669701140	222.047370740021	534.412496492822	722.297215532515	146.067227401814	580.493212505223	612.582308683885	158.135939057321	610.643933519848	775.048502283687	33.466945595509	613.221921268067	784.419902108731	37.482696227456	413.949014329860	855.744617375836	35.332482470029	330.568299841291	939.420279530359	96.408937579883	355.681302936395	1067.113527052432	45.485103168199	322.470491407432	788.163664422332	1081.902320576929	171.006382499222	895.734925318630	843.398420266381	173.231920970266	880.056697437120	1086.986833370614	728.670310090462	1098.010500000578	960.171729151960	684.058976187380	
